<?xml version="1.0" encoding="UTF-8"?>
<svg version="1.1" xmlns="http://www.w3.org/2000/svg" width="500" height="500">
<path d="M0 0 C165 0 330 0 500 0 C500 165 500 330 500 500 C335 500 170 500 0 500 C0 335 0 170 0 0 Z " fill="#6359C5" transform="translate(0,0)"/>
<path d="M0 0 C2.64 0 5.28 0 8 0 C9.53517665 13.07067394 10.7368774 26.14859316 11.78759766 39.26635742 C11.95516311 41.33333552 12.12295025 43.40029566 12.29093933 45.46723938 C12.74182881 51.02464085 13.1892121 56.5823189 13.63558245 62.14008498 C13.91540738 65.62220436 14.19599777 69.10426121 14.4768486 72.58629799 C15.45876223 84.76067389 16.43775836 96.93528043 17.4140625 109.11010742 C18.32101548 120.4191063 19.23450189 131.72756476 20.15099108 143.03579444 C20.94086376 152.78543813 21.72609484 162.53544862 22.50778043 172.28575212 C22.97332096 178.09162825 23.44069723 183.89734167 23.91279984 189.70268822 C24.35643594 195.15989513 24.79425494 200.61753905 25.22776222 206.07555962 C25.38693157 208.06740073 25.54810578 210.05908291 25.7115345 212.05057907 C25.93598121 214.78962629 26.15286742 217.5291799 26.36807251 220.26896667 C26.43285439 221.03787694 26.49763627 221.8067872 26.56438124 222.59899777 C27.14025502 230.11960841 27 237.37560061 27 245 C44.16 245 61.32 245 79 245 C79 241.7 79 238.4 79 235 C79.1046905 232.90847579 79.23454781 230.81787818 79.40234375 228.73046875 C79.48806641 227.65732422 79.57378906 226.58417969 79.66210938 225.47851562 C79.75298828 224.39248047 79.84386719 223.30644531 79.9375 222.1875 C80.02451172 221.08212891 80.11152344 219.97675781 80.20117188 218.83789062 C80.87186622 210.61567474 80.87186622 210.61567474 81.50439453 207.57641602 C82.10869015 204.43497187 82.28921403 201.36631517 82.46484375 198.171875 C82.50239777 197.51356689 82.53995178 196.85525879 82.5786438 196.17700195 C82.65910635 194.76614955 82.73816737 193.35521664 82.81594849 191.94421387 C83.02153141 188.23308857 83.24055296 184.52277198 83.4609375 180.8125 C83.50515335 180.067724 83.5493692 179.322948 83.59492493 178.55560303 C84.01277018 171.61479496 84.51200225 164.68157544 85.0625 157.75 C85.14169678 156.72874023 85.22089355 155.70748047 85.30249023 154.65527344 C85.37927002 153.71200195 85.4560498 152.76873047 85.53515625 151.796875 C85.63389038 150.58016113 85.63389038 150.58016113 85.73461914 149.33886719 C86 147 86 147 86.49780273 144.67089844 C87.13501846 141.28191444 87.32094563 137.90516953 87.5 134.46875 C87.5609082 133.39844543 87.5609082 133.39844543 87.62304688 132.30651855 C87.75206817 130.03785274 87.87659691 127.76897792 88 125.5 C88.16260801 122.51017218 88.32988065 119.5206588 88.5 116.53125 C88.55317383 115.51073547 88.55317383 115.51073547 88.60742188 114.46960449 C88.81164496 110.88875877 89.265879 107.50550146 90 104 C90.12717071 102.43986445 90.22049452 100.87663046 90.28125 99.3125 C90.31863281 98.44882813 90.35601562 97.58515625 90.39453125 96.6953125 C90.42933594 95.80585938 90.46414062 94.91640625 90.5 94 C90.56929916 92.22902141 90.6421088 90.45817605 90.71875 88.6875 C90.74904297 87.90761719 90.77933594 87.12773437 90.81054688 86.32421875 C91 84 91 84 91.48632812 81.67773438 C92.13683734 78.28667686 92.32073307 74.90924915 92.5 71.46875 C92.5609082 70.39844543 92.5609082 70.39844543 92.62304688 69.30651855 C92.75206817 67.03785274 92.87659691 64.76897792 93 62.5 C93.16260801 59.51017218 93.32988065 56.5206588 93.5 53.53125 C93.55317383 52.51073547 93.55317383 52.51073547 93.60742188 51.46960449 C93.81158516 47.88980721 94.25346646 44.5028503 95 41 C95.13505056 39.60019537 95.24136727 38.19726957 95.31640625 36.79296875 C95.35451416 36.11516357 95.39262207 35.4373584 95.43188477 34.73901367 C95.47498779 33.89701416 95.51809082 33.05501465 95.5625 32.1875 C95.706875 29.485625 95.85125 26.78375 96 24 C103.59 24 111.18 24 119 24 C119.20496094 26.90167969 119.40992188 29.80335938 119.62109375 32.79296875 C119.8222338 35.60951186 120.02446748 38.42597445 120.22680664 41.24243164 C120.36662263 43.19677721 120.50530517 45.15120422 120.64282227 47.10571289 C120.84091577 49.91835457 121.04311085 52.73067622 121.24609375 55.54296875 C121.3065538 56.41398727 121.36701385 57.2850058 121.42930603 58.18241882 C121.72386269 62.21124084 122.1882222 66.03980739 123 70 C123.18878882 72.35560513 123.33975496 74.71437352 123.46484375 77.07421875 C123.54216495 78.46810744 123.61964489 79.86198733 123.69726562 81.25585938 C123.75587769 82.34096802 123.75587769 82.34096802 123.81567383 83.44799805 C124.55834773 97.75339249 124.55834773 97.75339249 126 112 C127.17653151 121.20408767 127.60281074 130.45764825 128.125 139.71630859 C128.56698094 147.50104326 129.01143604 155.26139772 130 163 C131.17530736 172.20045296 131.60361121 181.45017223 132.12399292 190.70523071 C132.5777218 198.72573033 133.0824942 206.71076638 134.0625 214.6875 C135.19719937 224.74850105 135.54025717 234.88565765 136 245 C153.16 245 170.32 245 188 245 C188 241.7 188 238.4 188 235 C188.14519053 232.8187184 188.3251693 230.63927906 188.55078125 228.46484375 C189.96264711 214.6101152 191.21150235 200.75632576 192.18735886 186.86371422 C193.82161304 163.6719014 195.70911683 140.50169117 197.61637497 117.3310318 C197.96796597 113.05751852 198.31850174 108.78391889 198.66908169 104.51032257 C199.45470464 94.93399549 200.24206408 85.35781259 201.03076172 75.78173828 C201.70254519 67.62465767 202.37115074 59.46732499 203.0364418 51.30971241 C203.56247316 44.8603626 204.09158022 38.41127022 204.62237549 31.96231079 C204.83093418 29.42266535 205.03842896 26.8829323 205.24481201 24.34310913 C205.52337869 20.91857887 205.80601776 17.49441025 206.08984375 14.0703125 C206.16864273 13.0898143 206.24744171 12.1093161 206.32862854 11.09910583 C206.40314743 10.21062454 206.47766632 9.32214325 206.55444336 8.40673828 C206.61691757 7.64531525 206.67939178 6.88389221 206.74375916 6.09939575 C206.99982387 4.00144303 207.4423931 2.03670772 208 0 C210.31 0 212.62 0 215 0 C212.39584933 36.34315517 209.58473656 72.66444878 206.484375 108.96875 C206.40865957 109.85594223 206.33294415 110.74313446 206.25493431 111.6572113 C205.17150831 124.34918648 204.08080533 137.04053282 202.98828125 149.7317276 C201.87462625 162.66980136 200.76270473 175.60802064 199.65719819 188.54679346 C199.21792319 193.68581226 198.77566909 198.82456205 198.33083296 203.96310234 C198.05568322 207.14869234 197.78315215 210.33450278 197.51126099 213.52037239 C197.38699677 214.97029487 197.26170024 216.4201294 197.13516998 217.86985588 C196.17224173 228.91224773 195.58318645 239.91945752 195 251 C173.22 251 151.44 251 129 251 C127.81846019 238.59383199 126.68983664 226.29833078 126 213.875 C125.46648716 204.68972334 124.83416578 195.54561891 123.75219727 186.40698242 C122.68493733 176.95066059 122.23244422 167.43609244 121.69726562 157.9375 C121.6580751 157.26088821 121.61888458 156.58427643 121.57850647 155.88716125 C121.47134751 154.03064565 121.36823341 152.17389784 121.26538086 150.31713867 C121.05159376 147.04645835 121.05159376 147.04645835 120.50219727 144.02856445 C119.92620483 140.55496883 119.69965084 137.1402808 119.5 133.625 C119.45939453 132.93744629 119.41878906 132.24989258 119.37695312 131.54150391 C119.20488329 128.62624376 119.04028052 125.71057352 118.875 122.79492188 C118.75259736 120.65478819 118.62637809 118.51490203 118.5 116.375 C118.4278125 115.10398437 118.355625 113.83296875 118.28125 112.5234375 C118.05651513 109.07580235 118.05651513 109.07580235 117.5 106 C116.92272986 102.53637916 116.69910428 99.13065742 116.5 95.625 C116.45939453 94.93744629 116.41878906 94.24989258 116.37695312 93.54150391 C116.20488329 90.62624376 116.04028052 87.71057352 115.875 84.79492188 C115.75259736 82.65478819 115.62637809 80.51490203 115.5 78.375 C115.4278125 77.10398437 115.355625 75.83296875 115.28125 74.5234375 C115.02352678 71.29473823 114.55254435 68.18850265 114 65 C113.87863468 63.57630351 113.78251573 62.15009282 113.71875 60.72265625 C113.66267578 59.58086914 113.66267578 59.58086914 113.60546875 58.41601562 C113.57066406 57.63935547 113.53585938 56.86269531 113.5 56.0625 C113.25575108 50.63926936 112.78406564 45.37830148 112 40 C111.88915869 36.9895499 111.95362357 34.01446802 112 31 C109.03 31 106.06 31 103 31 C102.91435791 32.4226416 102.82871582 33.8452832 102.74047852 35.31103516 C102.42123132 40.60029398 102.09783262 45.88929227 101.77319336 51.17822266 C101.63339197 53.46526327 101.49470933 55.75237255 101.35717773 58.03955078 C101.15904677 61.33124279 100.95686463 64.62266505 100.75390625 67.9140625 C100.6934462 68.93303619 100.63298615 69.95200989 100.57069397 71.00186157 C100.27480758 75.73976936 99.81914935 80.3201498 99 85 C98.80399569 87.4444392 98.63975131 89.89154429 98.5 92.33984375 C98.4390918 93.36761681 98.4390918 93.36761681 98.37695312 94.41615295 C98.24826987 96.58977094 98.12365754 98.7635907 98 100.9375 C97.83671819 103.80099096 97.66943924 106.66421134 97.5 109.52734375 C97.4278125 110.79312256 97.355625 112.05890137 97.28125 113.36303711 C97.00442982 116.9427161 96.52442476 120.44935609 96 124 C95.82846833 126.7308931 95.68195721 129.45461165 95.5625 132.1875 C95.23729806 138.81831245 94.70292874 145.39888929 94 152 C93.32758872 158.33212688 92.8034196 164.63942606 92.5 171 C92.15597179 178.21185069 91.49316959 185.35821994 90.73046875 192.53686523 C90.15897517 198.04335511 89.76249273 203.53313916 89.5 209.0625 C89.16642193 216.05219594 88.5514739 222.97857511 87.74804688 229.92993164 C86.94808273 236.95875043 86.50611972 243.91432388 86 251 C64.22 251 42.44 251 20 251 C17.98238025 226.43873945 15.9652142 201.87744176 13.94882584 177.31608009 C13.01206469 165.90568383 12.07511785 154.49530288 11.13769531 143.08496094 C10.31835854 133.11195701 9.49940936 123.13892133 8.68088126 113.165851 C8.24953776 107.9104481 7.81803054 102.65505878 7.38605499 97.39970779 C6.33781014 84.64565614 5.29395191 71.8912548 4.25553322 59.13639927 C3.98489553 55.81460865 3.71361252 52.49287105 3.44230652 49.17113495 C2.96880613 43.36998114 2.49810529 37.56860549 2.02921629 31.76707721 C1.84918155 29.54406373 1.66833006 27.32111623 1.48661852 25.09823918 C1.23487261 22.01638649 0.98617298 18.93430221 0.73822021 15.85214233 C0.66308874 14.94048427 0.58795726 14.02882621 0.51054907 13.08954215 C0.1616151 8.71226769 -0.08506746 4.39589868 0 0 Z " fill="#02050C" transform="translate(25,119)"/>
<path d="M0 0 C2.64 0 5.28 0 8 0 C18.02689104 135.89125379 18.02689104 135.89125379 20.9709816 179.95845032 C21.12316713 182.22272985 21.27801988 184.48681176 21.4336853 186.75085449 C22.51576155 202.5325416 23.21616744 218.17654344 23 234 C32.9 234 42.8 234 53 234 C53 229.38 53 224.76 53 220 C53.29921841 217.32929025 53.6287975 214.66165943 54 212 C54.21212942 208.50238144 54.31932689 205.00189313 54.4375 201.5 C54.77698497 192.65927489 55.39379384 183.88126621 56.19128418 175.07147217 C56.75582896 168.57549486 57.16918829 162.08639279 57.47469425 155.57324409 C58.70937121 129.27421735 60.9733537 103.07234942 63.25109863 76.84643555 C63.6713684 71.99265742 64.08634042 67.13843256 64.5011301 62.2841835 C65.00025518 56.44450918 65.5017778 50.60504175 66.00390625 44.765625 C66.09786745 43.67193855 66.19182865 42.57825211 66.28863716 41.45142365 C66.55514803 38.35584884 66.82329964 35.26042093 67.09204102 32.16503906 C67.1694603 31.26434692 67.24687958 30.36365479 67.3266449 29.43566895 C67.40085663 28.58486755 67.47506836 27.73406616 67.55152893 26.85748291 C67.6143786 26.13215488 67.67722826 25.40682686 67.74198246 24.6595192 C68.11945429 20.76872334 68.56831615 16.88515462 69 13 C84.51 13 100.02 13 116 13 C118.78155045 42.50430298 121.15854474 72.00189976 123.25006104 101.56147766 C123.8071446 109.39856873 124.39285666 117.23304199 125 125.06640625 C126.86329215 149.13782593 128.58356172 173.2135637 130.11462402 197.30822754 C130.24916356 199.42434402 130.38431614 201.54042073 130.51953125 203.65649414 C130.77126723 207.60283827 131.01890979 211.54943235 131.265625 215.49609375 C131.37780365 217.26417641 131.37780365 217.26417641 131.49224854 219.06797791 C131.5932486 220.70579979 131.5932486 220.70579979 131.69628906 222.37670898 C131.75528381 223.32271469 131.81427856 224.2687204 131.87506104 225.24339294 C132.00723205 228.15956536 132 231.08083389 132 234 C141.9 234 151.8 234 162 234 C162 230.04 162 226.08 162 222 C162.13673596 218.88356593 162.29552299 215.78279225 162.50317383 212.671875 C162.55687637 211.82086716 162.61057892 210.96985931 162.66590881 210.09306335 C162.84246226 207.31178244 163.02456289 204.53089864 163.20703125 201.75 C163.33460434 199.76832589 163.46193372 197.78663607 163.58903503 195.80493164 C163.85644101 191.64924935 164.12656424 187.49375527 164.39868164 183.33837891 C164.73967546 178.12853414 165.07433378 172.91830696 165.40704727 167.7079277 C166.73311463 146.97873716 168.16124874 126.26777409 169.94352722 105.5725708 C171.19729111 90.97705824 172.17545495 76.36844505 173.125 61.75 C173.37827554 57.86563457 173.63252389 53.98134366 173.88961792 50.097229 C174.04662212 47.72445397 174.20150029 45.35153686 174.35379028 42.97845459 C174.73010821 37.28254354 175.25442947 31.65855819 176 26 C176.11646891 24.43772569 176.21442711 22.87377768 176.28125 21.30859375 C176.31863281 20.50873047 176.35601562 19.70886719 176.39453125 18.88476562 C176.46501178 17.24935619 176.53532349 15.61393947 176.60546875 13.97851562 C176.82653332 9.25611902 177.24805221 4.66834251 178 0 C180.31 0 182.62 0 185 0 C185.22328623 10.15952363 184.92573941 20.08816562 183.85205078 30.1940918 C182.99687524 38.45016695 182.48518672 46.7161094 182 55 C181.41313368 64.96395998 180.6990114 74.8935329 179.6796875 84.82421875 C179.04120852 91.16847023 178.68207482 97.50135679 178.39208984 103.86987305 C178.12083235 109.47797735 177.63803626 115.04061036 177.0625 120.625 C176.15082255 129.57141474 175.57305513 138.52266236 175.0625 147.5 C174.33541584 160.26850134 173.38237593 173.00507499 172.30453491 185.74850464 C171.19081532 198.96857119 170.33517636 212.19228131 169.64648438 225.44116211 C169.60971588 226.12367035 169.57294739 226.80617859 169.5350647 227.5093689 C169.43662544 229.34339509 169.34289012 231.17767207 169.24951172 233.01196289 C169 236 169 236 168 240 C153.81 240 139.62 240 125 240 C123.83238799 222.14712331 123.83238799 222.14712331 123.3203125 214.2890625 C122.97652974 209.01363126 122.63255698 203.73821314 122.28710938 198.46289062 C121.95323341 193.36335871 121.62069345 188.26374088 121.2890625 183.1640625 C121.23412502 182.32028675 121.17918755 181.476511 121.1225853 180.60716629 C120.53312109 171.53572709 119.96001244 162.46377562 119.43798828 153.38818359 C119.39369249 152.62022776 119.34939671 151.85227192 119.30375862 151.06104469 C119.0977169 147.47684171 118.89508727 143.89249784 118.69839478 140.30776978 C118.20813391 131.63979629 117.49670965 123.0127598 116.625 114.375 C116.54977112 113.62156311 116.47454224 112.86812622 116.39703369 112.09185791 C116.21999378 110.33445516 116.03977961 108.57737303 115.859375 106.8203125 C114.84154462 96.70117762 113.99056467 86.56740545 113.14178467 76.43292236 C112.96690748 74.34651866 112.79088255 72.26021077 112.61358643 70.17401123 C111.75474637 60.05511631 110.93902747 49.93750617 110.3828125 39.796875 C110.34227753 39.08065979 110.30174255 38.36444458 110.25997925 37.62652588 C109.94450493 31.39700884 110 25.26350584 110 19 C98.78 19 87.56 19 76 19 C75.67 23.29 75.34 27.58 75 32 C74.70190376 35.58552244 74.40029398 39.17049082 74.09204102 42.75512695 C73.91657405 44.80780051 73.74116684 46.86047917 73.56581116 48.91316223 C73.47434374 49.98232187 73.38287632 51.05148151 73.28863716 52.15303993 C72.68861217 59.18152915 72.09544193 66.21060119 71.5011301 73.23957539 C70.98456082 79.34466643 70.4656226 85.44953649 69.94116211 91.55395508 C67.60321017 118.78995635 65.52564801 145.98275121 64.31728649 173.29279423 C63.72632274 186.37456595 62.77517574 199.43667617 61.875 212.5 C61.69067939 215.2082842 61.50744117 217.91664131 61.32421875 220.625 C60.88650133 227.08358891 60.44496285 233.5419064 60 240 C53.8944529 240.02464513 47.78893449 240.04283371 41.68334961 240.05493164 C39.60456844 240.05997288 37.52579084 240.06680574 35.44702148 240.07543945 C32.46597414 240.08751422 29.48497351 240.09323024 26.50390625 240.09765625 C25.10078941 240.10539818 25.10078941 240.10539818 23.66932678 240.11329651 C22.37810158 240.11340981 22.37810158 240.11340981 21.06079102 240.11352539 C20.29912125 240.115746 19.53745148 240.11796661 18.75270081 240.12025452 C17 240 17 240 16 239 C15.77995795 237.1437462 15.6253041 235.27972077 15.49578857 233.41496277 C15.40908401 232.19925095 15.32237946 230.98353912 15.23304749 229.73098755 C15.14063458 228.36908515 15.04830658 227.00717699 14.95605469 225.64526367 C14.85604699 224.21849301 14.75562906 222.79175105 14.65483093 221.36503601 C14.43714212 218.27092168 14.2224243 215.17661993 14.0099411 212.08214378 C13.66856102 207.11053953 13.32076984 202.1393958 12.972229 197.16828918 C12.41504746 189.2101549 11.86238065 181.25171404 11.31148171 173.29314262 C10.34609493 159.34889314 9.3727055 145.40520052 8.39883566 131.4615413 C8.03875189 126.30478822 7.67982954 121.14795581 7.32167387 115.99106848 C6.15506075 99.20259008 4.96963256 82.4159716 3.70720816 65.63439453 C3.52723719 63.24183367 3.34786444 60.84922862 3.16862869 58.45661259 C2.66682835 51.76482172 2.16259886 45.0732727 1.64476991 38.38270122 C-0.40006553 11.87372108 -0.40006553 11.87372108 0 0 Z " fill="#03060E" transform="translate(40,119)"/>
<path d="M0 0 C23.76 0 47.52 0 72 0 C73.23889071 6.19445354 74.37342711 12.16662379 75.078125 18.40625 C75.16991531 19.18775925 75.26170563 19.96926849 75.35627747 20.77445984 C75.65793184 23.34921835 75.95397604 25.9245886 76.25 28.5 C76.57634523 31.30163832 76.90404881 34.10311576 77.23182678 36.90458679 C77.462228 38.87451257 77.69214894 40.84449457 77.9216156 42.81452942 C78.76582727 50.04963451 79.63647019 57.28126008 80.51953125 64.51171875 C83.62739543 89.98420102 86.53350705 115.45755518 89 141 C89.13491089 142.39307007 89.2698621 143.78613624 89.40484619 145.17919922 C90.44651902 155.93368362 91.47896598 166.68903129 92.50575638 177.44494629 C92.74895645 179.98908331 92.99313173 182.53312515 93.23751831 185.07714844 C93.62573316 189.12150187 94.01038744 193.16617972 94.39243126 197.21112061 C94.53560512 198.72168596 94.67989062 200.23214641 94.82535744 201.74249268 C95.02698334 203.83846377 95.22444107 205.934789 95.42089844 208.03125 C95.53318787 209.21267578 95.64547729 210.39410156 95.76116943 211.61132812 C96.00604991 215.08583976 96.04112459 218.51807196 96 222 C98.64 222 101.28 222 104 222 C104.06695068 220.38859131 104.06695068 220.38859131 104.13525391 218.74462891 C104.760599 204.90797915 106.02918338 191.15760416 107.375 177.375 C107.69275232 174.08601904 108.00930829 170.79692588 108.32521057 167.50776672 C108.5442348 165.23142642 108.76460304 162.95521511 108.9861908 160.67912292 C109.55431467 154.8099134 110.09560255 148.94043974 110.58032227 143.0637207 C112.8360774 116.13645197 116.1988069 89.334911 119.45143199 62.51338792 C120.36207985 55.00230385 121.26594522 47.49040499 122.16992188 39.97851562 C123.77370628 26.65158367 125.38726225 13.32585818 127 0 C151.09 0 175.18 0 200 0 C200 82.83 200 165.66 200 251 C197.69 251 195.38 251 193 251 C193 170.15 193 89.3 193 6 C173.2 6 153.4 6 133 6 C133 8.97 133 11.94 133 15 C132.73861018 18.05834494 132.44150988 21.0869161 132.08203125 24.1328125 C131.93606758 25.41876564 131.93606758 25.41876564 131.78715515 26.73069763 C131.46765457 29.52944743 131.14036843 32.3272191 130.8125 35.125 C130.58448824 37.10146415 130.35662593 39.07794554 130.12890625 41.05444336 C128.67804828 53.56928183 127.12443166 66.0691291 125.5 78.5625 C120.14489169 119.78449016 115.74364932 161.09147506 112.0546875 202.49609375 C111.98410126 203.28608765 111.91351501 204.07608154 111.84078979 204.89001465 C111.52019251 208.48813014 111.20479927 212.08655456 110.89990234 215.68603516 C110.79371582 216.90468262 110.6875293 218.12333008 110.578125 219.37890625 C110.48950195 220.4263501 110.40087891 221.47379395 110.30957031 222.55297852 C110 225 110 225 109 227 C103.06 227 97.12 227 91 227 C89.60342993 219.73945187 88.53579818 212.5698928 87.8515625 205.2109375 C87.75430374 204.20579102 87.65704498 203.20064453 87.55683899 202.16503906 C87.34953541 200.01621004 87.1443503 197.86717573 86.94113159 195.71795654 C86.61944551 192.31626359 86.29197845 188.91516817 85.96313477 185.51416016 C85.11465834 176.72380996 84.27812064 167.93233307 83.44384766 159.140625 C80.95442368 132.91760239 78.16127267 106.77566057 74.60058594 80.67382812 C72.45002985 64.90897137 70.57454993 49.11824412 68.75 33.3125 C68.54482758 31.54137344 68.54482758 31.54137344 68.33551025 29.73446655 C67.94540996 26.36098893 67.55804555 22.98721076 67.171875 19.61328125 C67.0533316 18.58655304 66.93478821 17.55982483 66.81265259 16.50198364 C66.65160538 15.08428177 66.65160538 15.08428177 66.48730469 13.63793945 C66.34551788 12.3979998 66.34551788 12.3979998 66.2008667 11.13301086 C66 9 66 9 66 6 C46.53 6 27.06 6 7 6 C7 86.85 7 167.7 7 251 C4.69 251 2.38 251 0 251 C0 168.17 0 85.34 0 0 Z " fill="#040206" transform="translate(266,119)"/>
<path d="M0 0 C15.51 0 31.02 0 47 0 C49.97643252 19.00337684 52.39208612 38.03268998 54.64257812 57.13354492 C54.90231075 59.33773175 55.16207658 61.54191467 55.421875 63.74609375 C55.55150635 64.84676682 55.6811377 65.94743988 55.81469727 67.08146667 C56.69846468 74.55015636 57.62514157 82.01250651 58.578125 89.47265625 C61.7476785 114.3783088 64.28729314 139.2605155 66.28317261 164.28684998 C67.24076467 176.18150682 68.37959657 188.05962535 69.52008057 199.93792725 C69.69092902 201.71762855 69.8609394 203.49741057 70.02999878 205.27728271 C70.18199974 206.87745649 70.33592972 208.47744875 70.49221802 210.07720947 C70.84063289 213.7543489 71 217.29629348 71 221 C81.56 221 92.12 221 103 221 C103.10441406 218.69515625 103.20882812 216.3903125 103.31640625 214.015625 C104.03232356 200.28456362 105.44113434 186.60099972 106.73345947 172.91485596 C107.07132103 169.33016812 107.40570108 165.74515596 107.74023438 162.16015625 C108.13105444 157.97328868 108.52222106 153.78645591 108.91571045 149.59983826 C109.57599675 142.57104877 110.22499615 135.54143028 110.85447693 128.5098114 C111.58922391 120.30502507 112.3635248 112.1137748 113.375 103.9375 C113.4994751 102.91116455 113.6239502 101.8848291 113.75219727 100.82739258 C114.72422574 92.93433158 115.82382149 85.06160152 116.9375 77.1875 C118.51191128 66.03900692 119.84370589 54.87948617 121.0625 43.6875 C121.18703552 42.54457993 121.18703552 42.54457993 121.31408691 41.37857056 C121.3963855 40.62304901 121.47868408 39.86752747 121.56347656 39.08911133 C121.7271552 37.58674494 121.89089149 36.08438484 122.0546875 34.58203125 C122.13432739 33.85152054 122.21396729 33.12100983 122.29602051 32.36836243 C123.04483374 25.53131577 123.84610343 18.7012961 124.6875 11.875 C124.80681885 10.88588623 124.9261377 9.89677246 125.04907227 8.87768555 C125.21620728 7.54217651 125.21620728 7.54217651 125.38671875 6.1796875 C125.52920044 5.03089111 125.52920044 5.03089111 125.67456055 3.85888672 C126 2 126 2 127 0 C142.51 0 158.02 0 174 0 C174.08075684 24.46932108 173.99562729 48.91070681 173.5625 73.375 C172.94089082 108.60160954 172.70137156 143.83180964 172.4375 179.0625 C172.42628794 180.55545808 172.415074 182.04841615 172.40385818 183.54137421 C172.26511616 202.02755337 172.13043966 220.51376025 172 239 C169.69 239 167.38 239 165 239 C164.79922422 179.74200701 164.66349549 120.49802236 165.9375 61.25 C165.95938133 60.21104836 165.98126266 59.17209671 166.00380707 58.10166168 C166.14841963 51.2394238 166.3028999 44.37747435 166.46484375 37.515625 C166.48433641 36.65759403 166.50382908 35.79956306 166.52391243 34.91553116 C166.57991812 32.49338621 166.64062909 30.07140564 166.70288086 27.64941406 C166.72553922 26.63744304 166.72553922 26.63744304 166.74865532 25.60502815 C166.93689458 18.70518492 167.50643531 11.90990572 168 5 C156.45 5 144.9 5 133 5 C132.443125 10.32125 132.443125 10.32125 131.875 15.75 C130.38868898 29.71701547 128.79627718 43.67163401 127.1875 57.625 C127.05930878 58.73755157 126.93111755 59.85010315 126.79904175 60.99636841 C125.38476381 73.25311446 123.9482263 85.506739 122.453125 97.75390625 C117.204749 140.7681585 112.94947592 183.84831869 109 227 C94.48 227 79.96 227 65 227 C63.08838609 209.28080952 61.22111047 191.56589419 59.57421875 173.8203125 C59.45034926 172.48674365 59.32646306 171.15317636 59.20256042 169.8196106 C59.10972574 168.82030046 59.10972574 168.82030046 59.0150156 167.80080223 C56.86469573 144.65794939 54.6314298 121.55880621 51.52236938 98.52085876 C51.42217499 97.77792068 51.32198059 97.0349826 51.21875 96.26953125 C51.11895844 95.53074234 51.01916687 94.79195343 50.91635132 94.03077698 C49.60484272 84.2052916 48.53375681 74.35134891 47.4375 64.5 C45.83563324 50.11040774 44.13548015 35.74299643 42.16772461 21.3984375 C42.01311768 20.24988281 41.85851074 19.10132813 41.69921875 17.91796875 C41.56346436 16.93594482 41.42770996 15.9539209 41.2878418 14.94213867 C40.96502013 11.64245771 41 8.31543485 41 5 C29.45 5 17.9 5 6 5 C6.13277344 9.32867187 6.26554687 13.65734375 6.40234375 18.1171875 C6.48921345 20.98827334 6.57592376 23.85936248 6.66210938 26.73046875 C6.79665446 31.21212212 6.93155293 35.69376032 7.07006836 40.17529297 C7.40763262 51.11615144 7.7167654 62.05759791 8 73 C8.0352371 74.35574001 8.0352371 74.35574001 8.07118607 75.73886871 C8.96664998 110.56353844 9.1295859 145.37148467 9.06866455 180.2064209 C9.0581765 186.87328778 9.05381417 193.54015838 9.04882812 200.20703125 C9.03830862 213.13803106 9.02160369 226.06901417 9 239 C6.36 239 3.72 239 1 239 C0.86724899 217.28817358 0.7368059 195.57633428 0.60884857 173.86447906 C0.54933774 163.77504339 0.48916092 153.68561264 0.42724609 143.59619141 C0.13390253 95.73013578 -0.07802991 47.86701597 0 0 Z " fill="#050308" transform="translate(279,131)"/>
<path d="M0 0 C7.92 0 15.84 0 24 0 C25.36559745 12.02543146 26.73081306 24.05090611 28.09541702 36.07645035 C28.7295673 41.66476171 29.3638635 47.25305642 29.99853516 52.84130859 C31.33584486 64.61702355 32.67116618 76.39295899 34.00153542 88.1694603 C34.52987088 92.84578808 35.05894765 97.52202542 35.5914917 102.19787598 C37.94288478 122.84768323 40.06806108 143.50566702 41.93945312 164.20452881 C42.18937261 166.95964455 42.44267899 169.71444447 42.69607735 172.4692421 C43.00967241 175.88041315 43.32131415 179.29176195 43.6328125 182.703125 C43.74118439 183.88811584 43.84955627 185.07310669 43.96121216 186.29400635 C45.03763181 198.19142543 46.00784599 210.09415192 47 222 C65.48 222 83.96 222 103 222 C103.33 216.72 103.66 211.44 104 206 C104.32867662 202.17537068 104.67153733 198.35827599 105.05078125 194.5390625 C105.14950027 193.52112106 105.2482193 192.50317963 105.34992981 191.45439148 C105.66822425 188.17767207 105.99027675 184.90133517 106.3125 181.625 C106.65104167 178.15533379 106.98875814 174.68558789 107.32641602 171.21583557 C107.55411697 168.87664159 107.78214432 166.53747935 108.01049805 164.198349 C108.72732031 156.84591412 109.42802512 149.49215973 110.11328125 142.13671875 C111.73102083 124.79523876 113.44161435 107.48929028 115.60693359 90.20605469 C116.38357071 83.87139717 117.09313032 77.52886479 117.8125 71.1875 C118.14676493 68.24735361 118.48150011 65.30726092 118.81640625 62.3671875 C118.90570404 61.58307495 118.99500183 60.7989624 119.08700562 59.99108887 C120.46212828 47.93012025 121.85755685 35.87147852 123.25 23.8125 C123.38669098 22.62852631 123.52338196 21.44455261 123.66421509 20.22470093 C124.44255363 13.48310429 125.22123062 6.74154691 126 0 C133.59 0 141.18 0 149 0 C149.12243057 15.63385129 148.96992662 31.18942731 148.37890625 46.80859375 C148.34729086 47.65124598 148.31567547 48.4938982 148.28310204 49.36208534 C148.14956414 52.91573166 148.01511948 56.46934255 147.87975216 60.02291965 C146.36971056 99.74194941 145.61557252 139.44131145 145.3125 179.1875 C145.30311024 180.41487255 145.29372047 181.6422451 145.28404617 182.90681076 C145.17065062 197.93777319 145.07578668 212.96880218 145 228 C142.69 228 140.38 228 138 228 C137.55936073 172.95706097 137.6892199 118.00639793 139.9375 63 C139.98329697 61.87035828 140.02909393 60.74071655 140.07627869 59.57684326 C140.38155623 52.07153916 140.69853117 44.56680933 141.02734375 37.0625 C141.06899343 36.10659973 141.11064312 35.15069946 141.15355492 34.16583252 C141.56880594 24.752286 142.03013659 15.37624483 143 6 C139.04 6 135.08 6 131 6 C131.01675781 7.46171631 131.03351563 8.92343262 131.05078125 10.42944336 C131.04817632 15.3774627 130.71116756 20.21216074 130.1875 25.12890625 C130.09843887 26.00194901 130.00937775 26.87499176 129.9176178 27.77449036 C129.61694446 30.70438937 129.30850825 33.63341637 129 36.5625 C128.77897752 38.70065901 128.55820122 40.83884347 128.33764648 42.97705078 C126.98273264 56.02902821 125.55506221 69.07244262 124.09765625 82.11328125 C123.41816857 88.20039818 122.73970066 94.28762821 122.0625 100.375 C121.93445606 101.5253882 121.93445606 101.5253882 121.80382538 102.69901657 C118.29825029 134.22683266 115.3483942 165.79056512 112.65087891 197.39697266 C111.77751667 207.59886566 110.88701867 217.79928531 110 228 C86.9 228 63.8 228 40 228 C36.61179772 191.8591757 36.61179772 191.8591757 35.5703125 179.984375 C35.33290842 177.30774458 35.09521998 174.63114165 34.85693359 171.95458984 C34.76762951 170.95136531 34.76762951 170.95136531 34.6765213 169.92787361 C32.62990596 146.96092131 30.45690585 124.02542476 27.7565918 101.12426758 C27.55507381 99.41488832 27.35365654 97.70549719 27.15234375 95.99609375 C27.05479294 95.16827896 26.95724213 94.34046417 26.85673523 93.48756409 C25.67086497 83.32606398 24.68848519 73.14455444 23.6963501 62.962677 C22.35677458 49.23878917 20.8503208 35.53962401 19.21850586 21.84741211 C19.13654465 21.151409 19.05458344 20.45540588 18.97013855 19.73831177 C18.75035531 17.87384553 18.52716648 16.00978163 18.30371094 14.14575195 C18 11 18 11 18 6 C14.37 6 10.74 6 7 6 C7.1550853 6.79349854 7.31017059 7.58699707 7.46995544 8.40454102 C8.11565988 12.78455737 8.31173687 17.10687624 8.48071289 21.52734375 C8.53943636 22.9537383 8.53943636 22.9537383 8.59934616 24.4089489 C8.72836665 27.58496842 8.85104264 30.76118865 8.97265625 33.9375 C9.01595251 35.04781712 9.05924877 36.15813423 9.10385704 37.30209732 C9.43700256 45.8675796 9.75204592 54.43366903 10.0625 63 C10.13167885 64.88753117 10.13167885 64.88753117 10.20225525 66.81319427 C12.16562956 120.54922394 12.46606808 174.23254706 12 228 C9.36 228 6.72 228 4 228 C3.99576806 227.33629961 3.99153612 226.67259922 3.98717594 225.9887867 C3.88338787 209.75936475 3.77468341 193.52998369 3.66066074 177.30063057 C3.6056336 169.45189901 3.55220564 161.60316293 3.50268555 153.75439453 C3.45946585 146.90488561 3.41309987 140.05540604 3.36312145 133.20594299 C3.33682043 129.58697293 3.31198215 125.96800753 3.29092598 122.34900284 C3.2114969 108.85657928 3.12454235 95.392904 2.24501038 81.92523193 C1.83018753 75.27948931 1.6562887 68.62812536 1.46484375 61.97265625 C1.4215873 60.5225733 1.37817228 59.07249506 1.33460999 57.62242126 C1.2449684 54.62193838 1.15689092 51.62141535 1.07006836 48.62084961 C0.959615 44.80647224 0.84560524 40.99221107 0.73049068 37.17797184 C0.6408774 34.19833483 0.5529016 31.21865118 0.46542549 28.23895073 C0.42400518 26.83294819 0.38215274 25.4269583 0.33982658 24.02098274 C0.28084247 22.05187806 0.22425101 20.08270216 0.16772461 18.11352539 C0.13521103 17.001996 0.10269745 15.89046661 0.06919861 14.74525452 C-0.02159969 9.83095429 0 4.91513896 0 0 Z " fill="#050308" transform="translate(291,142)"/>
<path d="M0 0 C2.31 0 4.62 0 7 0 C8.68087657 11.82254126 9.52735457 23.57523436 10.0625 35.5 C10.17904378 38.02083463 10.29743761 40.54155033 10.41929626 43.06213379 C10.49388027 44.61137506 10.56538475 46.16076923 10.6330719 47.71032715 C10.79993187 51.23838123 11.05944436 54.71691206 11.51367188 58.22045898 C11.89436332 61.17903545 12.15426248 64.02851129 12.24609375 67.00390625 C12.29540039 68.36612305 12.29540039 68.36612305 12.34570312 69.75585938 C12.40498252 71.56829545 12.46240723 73.38079358 12.51757812 75.19335938 C12.72139277 80.72711931 13.09823979 86.2217689 13.62052917 91.73291016 C15.37491315 110.39619664 16.27723333 129.11812103 17.28710938 147.83325195 C17.56733572 153.02217253 17.85642408 158.21055699 18.1478672 163.39885807 C18.37515276 167.46819121 18.59680295 171.53781796 18.81696701 175.60754204 C18.92111911 177.51810468 19.02709642 179.42856896 19.13515091 181.33891487 C19.89901043 194.90413212 20.13142734 208.41384744 20 222 C22.64 222 25.28 222 28 222 C28.05945801 220.19317749 28.05945801 220.19317749 28.12011719 218.34985352 C29.03043422 191.207122 30.31227333 164.10413367 32 137 C32.04205063 136.32132496 32.08410126 135.64264992 32.12742615 134.94340897 C33.03667819 120.27002203 34.00252518 105.60081701 35.0625 90.9375 C35.14177734 89.81931885 35.22105469 88.7011377 35.30273438 87.54907227 C35.66556155 82.63680397 36.16703103 77.85669099 37 73 C37.198393 70.32031674 37.36714334 67.65139776 37.5 64.96875 C37.5609082 63.83753723 37.5609082 63.83753723 37.62304688 62.68347168 C37.75188775 60.28913747 37.87648171 57.89461432 38 55.5 C38.16281604 52.34353119 38.33006562 49.18734271 38.5 46.03125 C38.53544922 45.31545776 38.57089844 44.59966553 38.60742188 43.86218262 C38.82656432 39.80059839 39.32656384 36.04061694 40 32 C40.66 21.77 41.32 11.54 42 1 C66.09 1 90.18 1 115 1 C115.40992188 6.82269531 115.81984375 12.64539063 116.2421875 18.64453125 C116.50645713 22.39518606 116.77075591 26.14583878 117.03515625 29.89648438 C117.45226259 35.81337572 117.86927717 41.7302734 118.28564453 47.6472168 C118.6872953 53.35469239 119.08958645 59.06212262 119.4921875 64.76953125 C119.55823936 65.70666521 119.62429123 66.64379917 119.69234467 67.60933113 C120.45949175 78.48641447 121.24649941 89.3614278 122.0703125 100.234375 C123.15030849 114.58189993 124.01568192 128.94216296 124.87257385 143.30434799 C125.00191155 145.46949996 125.13189698 147.63461214 125.26208496 149.79971313 C126.28183451 166.76089816 127.29369614 183.72260474 128.25 200.6875 C128.29092773 201.40412811 128.33185547 202.12075623 128.37402344 202.85910034 C128.48589093 204.82651779 128.59460214 206.79411397 128.703125 208.76171875 C128.76145508 209.81319092 128.81978516 210.86466309 128.87988281 211.94799805 C129.01186171 215.30138859 129.02001953 218.6443577 129 222 C131.64 222 134.28 222 137 222 C136.9941624 221.26022006 136.98832479 220.52044012 136.9823103 219.75824261 C136.95143069 212.85247074 137.1223481 205.99325542 137.50317383 199.09887695 C137.55687637 198.0803363 137.61057892 197.06179565 137.66590881 196.01239014 C137.84301512 192.67083682 138.02482959 189.32956033 138.20703125 185.98828125 C138.33453313 183.61501447 138.46186425 181.24173852 138.58903503 178.86845398 C138.85677266 173.88638656 139.12690609 168.90445614 139.39868164 163.92260742 C139.73964579 157.66829359 140.0742284 151.4136582 140.40703964 145.15890598 C141.75862888 119.81404927 143.23542162 94.49124412 145.16178608 69.18326187 C145.22110908 68.40389141 145.28043207 67.62452095 145.34155273 66.8215332 C145.39941798 66.06209286 145.45728323 65.30265251 145.51690197 64.52019882 C146.36175529 53.33495587 146.99321408 42.1364439 147.625 30.9375 C147.80676326 27.72869813 147.98955683 24.5199717 148.17562866 21.31141663 C148.28837222 19.36709375 148.39879453 17.42263405 148.5062561 15.47801208 C148.80747923 10.27975731 149.29398149 5.15933716 150 0 C152.31 0 154.62 0 157 0 C157.18793426 12.31814617 156.62836613 24.47037076 155.6875 36.75 C155.54962201 38.61276143 155.41217981 40.47555515 155.27514648 42.33837891 C154.48658296 52.97361292 153.62835871 63.60237595 152.74133301 74.22976685 C149.73727271 110.2656745 147.3424889 146.36804383 145.65258789 182.48950195 C144.94186845 197.67125061 143.9955017 212.83448473 143 228 C136.4 228 129.8 228 123 228 C122.14633936 223.73169681 121.74263815 219.72884862 121.55444336 215.40966797 C121.51821271 214.65202683 121.48198206 213.8943857 121.44465351 213.11378574 C121.3655048 211.4542349 121.28795594 209.79460717 121.21179962 208.13491631 C120.9974976 203.49108802 120.76713851 198.84803877 120.53979492 194.20483398 C120.49145823 193.21105145 120.44312153 192.21726892 120.39332008 191.19337177 C118.2442408 147.03513557 115.32621089 102.96869586 111.8608036 58.89451313 C111.51201189 54.45356431 111.16642573 50.01236768 110.82068634 45.57118034 C110.58243243 42.53815564 110.33756325 39.50572052 110.09197998 36.47328186 C109.94608549 34.61689133 109.80042216 32.76048262 109.6550293 30.90405273 C109.58806823 30.10289976 109.52110716 29.30174679 109.45211697 28.47631645 C108.89771742 21.25933227 109 14.31533878 109 7 C89.2 7 69.4 7 49 7 C49 9.97 49 12.94 49 16 C48.74154499 18.93727417 48.44992826 21.84801633 48.10351562 24.77392578 C46.95893253 35.03993877 46.12554626 45.31804796 45.34375 55.6171875 C45.1944915 57.56731417 45.04519863 59.51743821 44.89587402 61.46755981 C44.58460202 65.54332315 44.27573857 69.61926121 43.96826172 73.6953125 C43.6606004 77.7689153 43.34843298 81.84212871 43.03173828 85.91503906 C40.97222319 112.41768943 39.3830884 138.89668259 38.31299877 165.45758247 C37.85368963 176.78093092 37.25250582 188.09606761 36.62231445 199.41113281 C36.42854156 202.91184368 36.2426531 206.41293147 36.05664062 209.9140625 C35.93275416 212.16669215 35.80842604 214.41929757 35.68359375 216.671875 C35.60231483 218.22415802 35.60231483 218.22415802 35.51939392 219.80780029 C35.46586258 220.74359924 35.41233124 221.67939819 35.35717773 222.64355469 C35.31213608 223.46490906 35.26709442 224.28626343 35.22068787 225.13250732 C35 227 35 227 34 228 C32.5112814 228.08669432 31.018555 228.10703494 29.52734375 228.09765625 C28.71773193 228.09515869 27.90812012 228.09266113 27.07397461 228.09008789 C26.03893799 228.08098389 25.00390137 228.07187988 23.9375 228.0625 C22.16479709 228.05101153 20.39209181 228.0398853 18.61938477 228.02905273 C17.07958984 228.01936849 15.53979492 228.00968424 14 228 C12.16469998 206.15210761 10.90928417 184.27607906 9.66143799 162.38848877 C9.39462335 157.71787073 9.12489821 153.04742091 8.85546875 148.37695312 C7.26139573 120.71027865 7.26139573 120.71027865 6.5719223 108.34624958 C6.39296202 105.13837216 6.21274283 101.93056594 6.03248596 98.72276115 C5.91082417 96.54665964 5.79123955 94.37045097 5.67175293 92.19422913 C5.25863611 84.77995509 4.73852927 77.38936294 4 70 C2.8824314 58.69594681 2.288108 47.36908092 1.69726562 36.02734375 C1.6580751 35.29285004 1.61888458 34.55835632 1.57850647 33.80160522 C1.47163924 31.79185866 1.36838723 29.7819208 1.26538086 27.77197266 C1.07591096 25.07895526 0.82537805 22.45995392 0.47705078 19.78857422 C0.13032918 17.03502981 -0.12066095 14.47931409 -0.09765625 11.71875 C-0.09443359 11.02265625 -0.09121094 10.3265625 -0.08789062 9.609375 C-0.07951172 8.91328125 -0.07113281 8.2171875 -0.0625 7.5 C-0.05798828 6.77296875 -0.05347656 6.0459375 -0.04882812 5.296875 C-0.03721193 3.53121319 -0.01928441 1.7655947 0 0 Z " fill="#03050C" transform="translate(54,119)"/>
</svg>
